<mxfile host="app.diagrams.net" modified="2021-11-19T10:36:53.248Z" agent="5.0 (Windows NT 10.0; Win64; x64) AppleWebKit/537.36 (KHTML, like Gecko) Chrome/95.0.4638.69 Safari/537.36" etag="gmu8VmySB_-P35SYJ8yz" version="15.8.2" type="github">
  <diagram id="Y7WWSDAfvK85BgQn_pmk" name="Page-1">
    <mxGraphModel dx="2333" dy="827" grid="1" gridSize="10" guides="1" tooltips="1" connect="1" arrows="1" fold="1" page="1" pageScale="1" pageWidth="850" pageHeight="1100" math="0" shadow="0">
      <root>
        <mxCell id="0" />
        <mxCell id="1" parent="0" />
        <UserObject label="&amp;lt;&amp;lt;extends&amp;gt;&amp;gt;" lucidchartObjectId="PM2qZnHVpai8" id="RZULVZN663qODn4eYaS_-1">
          <mxCell style="html=1;overflow=block;blockSpacing=1;whiteSpace=wrap;container=1;whiteSpace=wrap;fontSize=13;fontColor=#333333;align=center;spacing=0;strokeColor=#333333;strokeOpacity=100;fillOpacity=0;rounded=1;absoluteArcSize=1;arcSize=7.5;fillColor=#000000;strokeWidth=0.8;" parent="1" vertex="1">
            <mxGeometry x="165" y="1055" width="90" height="27" as="geometry" />
          </mxCell>
        </UserObject>
        <UserObject label="Customer" lucidchartObjectId=".Q4MOHSBDm2E" id="RZULVZN663qODn4eYaS_-2">
          <mxCell style="html=1;overflow=block;blockSpacing=1;whiteSpace=wrap;shape=umlActor;labelPosition=center;verticalLabelPosition=bottom;verticalAlign=top;whiteSpace=nowrap;whiteSpace=wrap;fontSize=13.3;fontColor=#333333;fontStyle=2;spacing=0;strokeColor=#333333;strokeOpacity=100;rounded=1;absoluteArcSize=1;arcSize=7.5;fillColor=#ffffff;strokeWidth=0.8;" parent="1" vertex="1">
            <mxGeometry x="-630" y="482" width="60" height="135" as="geometry" />
          </mxCell>
        </UserObject>
        <UserObject label="Mechanic" lucidchartObjectId=".Q4MG143k2o2" id="RZULVZN663qODn4eYaS_-3">
          <mxCell style="html=1;overflow=block;blockSpacing=1;whiteSpace=wrap;shape=umlActor;labelPosition=center;verticalLabelPosition=bottom;verticalAlign=top;whiteSpace=nowrap;whiteSpace=wrap;fontSize=13.3;fontColor=#333333;fontStyle=2;spacing=0;strokeColor=#333333;strokeOpacity=100;rounded=1;absoluteArcSize=1;arcSize=7.5;fillColor=#ffffff;strokeWidth=0.8;" parent="1" vertex="1">
            <mxGeometry x="960" y="395" width="60" height="135" as="geometry" />
          </mxCell>
        </UserObject>
        <UserObject label="Book appointment" lucidchartObjectId=".Q4M82ccuo9S" id="RZULVZN663qODn4eYaS_-4">
          <mxCell style="html=1;overflow=block;blockSpacing=1;whiteSpace=wrap;ellipse;whiteSpace=wrap;fontSize=13.3;fontColor=#000000;fontStyle=2;align=center;spacing=0;verticalAlign=middle;strokeColor=#ffffff;strokeOpacity=100;fillOpacity=100;rounded=1;absoluteArcSize=1;arcSize=7.5;fillColor=#3278cc;strokeWidth=0.8;" parent="1" vertex="1">
            <mxGeometry x="-440" y="125" width="120" height="90" as="geometry" />
          </mxCell>
        </UserObject>
        <UserObject label="Choose  appointment type" lucidchartObjectId=".Q4M-m0Nwd3n" id="RZULVZN663qODn4eYaS_-5">
          <mxCell style="html=1;overflow=block;blockSpacing=1;whiteSpace=wrap;ellipse;whiteSpace=wrap;fontSize=13.3;fontColor=#000000;fontStyle=2;align=center;spacing=0;verticalAlign=middle;strokeColor=#ffffff;strokeOpacity=100;fillOpacity=100;rounded=1;absoluteArcSize=1;arcSize=7.5;fillColor=#3278cc;strokeWidth=0.8;" parent="1" vertex="1">
            <mxGeometry x="42" y="110" width="120" height="90" as="geometry" />
          </mxCell>
        </UserObject>
        <UserObject label="Choose date" lucidchartObjectId=".Q4M-E~2-rLI" id="RZULVZN663qODn4eYaS_-6">
          <mxCell style="html=1;overflow=block;blockSpacing=1;whiteSpace=wrap;ellipse;whiteSpace=wrap;fontSize=13.3;fontColor=#333333;align=center;spacing=0;verticalAlign=middle;strokeColor=#ffffff;strokeOpacity=100;fillOpacity=100;rounded=1;absoluteArcSize=1;arcSize=7.5;fillColor=#3278cc;strokeWidth=0.8;" parent="1" vertex="1">
            <mxGeometry x="90" y="215" width="120" height="90" as="geometry" />
          </mxCell>
        </UserObject>
        <UserObject label="" lucidchartObjectId=".Q4MYe-bv_wy" id="RZULVZN663qODn4eYaS_-7">
          <mxCell style="html=1;jettySize=18;whiteSpace=wrap;fontSize=13;strokeColor=#333333;strokeOpacity=100;strokeWidth=0.8;rounded=0;startArrow=none;;endArrow=none;;exitX=0.506;exitY=0.5;exitPerimeter=0;entryX=-0.003;entryY=0.5;entryPerimeter=0;" parent="1" source="RZULVZN663qODn4eYaS_-2" target="RZULVZN663qODn4eYaS_-4" edge="1">
            <mxGeometry width="100" height="100" relative="1" as="geometry">
              <Array as="points" />
            </mxGeometry>
          </mxCell>
        </UserObject>
        <UserObject label="" lucidchartObjectId=".Q4MsHjaNKUe" id="RZULVZN663qODn4eYaS_-8">
          <mxCell style="html=1;jettySize=18;whiteSpace=wrap;fontSize=13;strokeColor=#333333;strokeOpacity=100;dashed=1;fixDash=1;strokeWidth=0.8;rounded=0;startArrow=none;;endArrow=open;;exitX=0.991;exitY=0.611;exitPerimeter=0;entryX=0.009;entryY=0.389;entryPerimeter=0;" parent="1" source="RZULVZN663qODn4eYaS_-4" target="RZULVZN663qODn4eYaS_-6" edge="1">
            <mxGeometry width="100" height="100" relative="1" as="geometry">
              <Array as="points" />
            </mxGeometry>
          </mxCell>
        </UserObject>
        <mxCell id="RZULVZN663qODn4eYaS_-9" value="&amp;lt;&amp;lt;Include&amp;gt;&amp;gt;" style="text;html=1;resizable=0;labelBackgroundColor=#ffffff;align=center;verticalAlign=middle;fontStyle=2;fontColor=#333333;;fontSize=13.3;" parent="RZULVZN663qODn4eYaS_-8" vertex="1">
          <mxGeometry relative="1" as="geometry" />
        </mxCell>
        <UserObject label="Modder" lucidchartObjectId="PHmnq0XMo5mH" id="RZULVZN663qODn4eYaS_-10">
          <mxCell style="html=1;overflow=block;blockSpacing=1;whiteSpace=wrap;shape=umlActor;labelPosition=center;verticalLabelPosition=bottom;verticalAlign=top;whiteSpace=nowrap;whiteSpace=wrap;fontSize=13.3;fontColor=#333333;fontStyle=2;spacing=0;strokeColor=#333333;strokeOpacity=100;rounded=1;absoluteArcSize=1;arcSize=7.5;fillColor=#ffffff;strokeWidth=0.8;" parent="1" vertex="1">
            <mxGeometry x="450" y="1295" width="60" height="135" as="geometry" />
          </mxCell>
        </UserObject>
        <UserObject label="Head-Mechanic" lucidchartObjectId="SHmn~vBo4NZ~" id="RZULVZN663qODn4eYaS_-11">
          <mxCell style="html=1;overflow=block;blockSpacing=1;whiteSpace=wrap;shape=umlActor;labelPosition=center;verticalLabelPosition=bottom;verticalAlign=top;whiteSpace=nowrap;whiteSpace=wrap;fontSize=13.3;fontColor=#333333;fontStyle=2;spacing=0;strokeColor=#333333;strokeOpacity=100;rounded=1;absoluteArcSize=1;arcSize=7.5;fillColor=#ffffff;strokeWidth=0.8;" parent="1" vertex="1">
            <mxGeometry x="855" y="1205" width="60" height="135" as="geometry" />
          </mxCell>
        </UserObject>
        <UserObject label="Receptionist" lucidchartObjectId="YHmn7QJKc5ht" id="RZULVZN663qODn4eYaS_-12">
          <mxCell style="html=1;overflow=block;blockSpacing=1;whiteSpace=wrap;shape=umlActor;labelPosition=center;verticalLabelPosition=bottom;verticalAlign=top;whiteSpace=nowrap;whiteSpace=wrap;fontSize=13.3;fontColor=#333333;fontStyle=2;spacing=0;strokeColor=#333333;strokeOpacity=100;rounded=1;absoluteArcSize=1;arcSize=7.5;fillColor=#ffffff;strokeWidth=0.8;" parent="1" vertex="1">
            <mxGeometry x="-540" y="1295" width="60" height="135" as="geometry" />
          </mxCell>
        </UserObject>
        <UserObject label="view car details" lucidchartObjectId="CH~oWJ6c4LuN" id="RZULVZN663qODn4eYaS_-13">
          <mxCell style="html=1;overflow=block;blockSpacing=1;whiteSpace=wrap;ellipse;whiteSpace=wrap;fontSize=13;spacing=0;strokeColor=#ffffff;strokeOpacity=100;fillOpacity=100;rounded=1;absoluteArcSize=1;arcSize=7.5;fillColor=#3278cc;strokeWidth=0.8;" parent="1" vertex="1">
            <mxGeometry x="765" y="125" width="120" height="90" as="geometry" />
          </mxCell>
        </UserObject>
        <UserObject label="Mark car for Mod/Repair" lucidchartObjectId="fI~o2mmQMFoB" id="RZULVZN663qODn4eYaS_-14">
          <mxCell style="html=1;overflow=block;blockSpacing=1;whiteSpace=wrap;ellipse;whiteSpace=wrap;fontSize=13;spacing=0;strokeColor=#ffffff;strokeOpacity=100;fillOpacity=100;rounded=1;absoluteArcSize=1;arcSize=7.5;fillColor=#3278cc;strokeWidth=0.8;" parent="1" vertex="1">
            <mxGeometry x="660" y="830" width="120" height="90" as="geometry" />
          </mxCell>
        </UserObject>
        <UserObject label="" lucidchartObjectId="YI~oLpTDEYvX" id="RZULVZN663qODn4eYaS_-15">
          <mxCell style="html=1;jettySize=18;whiteSpace=wrap;fontSize=13;strokeColor=#333333;strokeOpacity=100;strokeWidth=0.8;rounded=0;startArrow=none;;endArrow=none;;exitX=0.494;exitY=0.439;exitPerimeter=0;entryX=1.003;entryY=0.5;entryPerimeter=0;" parent="1" source="RZULVZN663qODn4eYaS_-3" target="RZULVZN663qODn4eYaS_-16" edge="1">
            <mxGeometry width="100" height="100" relative="1" as="geometry">
              <Array as="points" />
            </mxGeometry>
          </mxCell>
        </UserObject>
        <UserObject label="inspect a car" lucidchartObjectId="ZI~oNf8htSmT" id="RZULVZN663qODn4eYaS_-16">
          <mxCell style="html=1;overflow=block;blockSpacing=1;whiteSpace=wrap;ellipse;whiteSpace=wrap;fontSize=13;spacing=0;strokeColor=#ffffff;strokeOpacity=100;fillOpacity=100;rounded=1;absoluteArcSize=1;arcSize=7.5;fillColor=#3278cc;dashed=1;fixDash=1;strokeWidth=0.8;" parent="1" vertex="1">
            <mxGeometry x="555" y="215" width="120" height="90" as="geometry" />
          </mxCell>
        </UserObject>
        <UserObject label="Mark car reapir as completed or not" lucidchartObjectId="AM~oAcgPCIYt" id="RZULVZN663qODn4eYaS_-17">
          <mxCell style="html=1;overflow=block;blockSpacing=1;whiteSpace=wrap;ellipse;whiteSpace=wrap;fontSize=13;spacing=0;strokeColor=#ffffff;strokeOpacity=100;fillOpacity=100;rounded=1;absoluteArcSize=1;arcSize=7.5;fillColor=#3278cc;strokeWidth=0.8;" parent="1" vertex="1">
            <mxGeometry x="330" y="215" width="120" height="90" as="geometry" />
          </mxCell>
        </UserObject>
        <UserObject label="&amp;lt;&amp;lt;include&amp;gt;&amp;gt;" lucidchartObjectId="mN~ouedJQMaN" id="RZULVZN663qODn4eYaS_-18">
          <mxCell style="html=1;overflow=block;blockSpacing=1;whiteSpace=wrap;;whiteSpace=wrap;fontSize=13;fontColor=#333333;align=center;spacing=0;strokeColor=#333333;strokeOpacity=100;fillOpacity=100;rounded=1;absoluteArcSize=1;arcSize=12;fillColor=#ffffff;strokeWidth=0.8;" parent="1" vertex="1">
            <mxGeometry x="480" y="230" width="60" height="24" as="geometry" />
          </mxCell>
        </UserObject>
        <UserObject label="" lucidchartObjectId="DZ~oqvtiq2aD" id="RZULVZN663qODn4eYaS_-19">
          <mxCell style="html=1;jettySize=18;whiteSpace=wrap;fontSize=13;strokeColor=#333333;strokeOpacity=100;strokeWidth=0.8;rounded=0;startArrow=none;;endArrow=none;;exitX=1.003;exitY=0.5;exitPerimeter=0;entryX=0.247;entryY=0.11;entryPerimeter=0;" parent="1" source="RZULVZN663qODn4eYaS_-13" target="RZULVZN663qODn4eYaS_-3" edge="1">
            <mxGeometry width="100" height="100" relative="1" as="geometry">
              <Array as="points" />
            </mxGeometry>
          </mxCell>
        </UserObject>
        <UserObject label="" lucidchartObjectId="KZ~oAJrY41O1" id="RZULVZN663qODn4eYaS_-20">
          <mxCell style="html=1;jettySize=18;whiteSpace=wrap;fontSize=13;strokeColor=#333333;strokeOpacity=100;strokeWidth=0.8;rounded=0;startArrow=none;;endArrow=none;;exitX=1.003;exitY=0.5;exitPerimeter=0;entryX=0.212;entryY=0.734;entryPerimeter=0;" parent="1" source="RZULVZN663qODn4eYaS_-14" target="RZULVZN663qODn4eYaS_-3" edge="1">
            <mxGeometry width="100" height="100" relative="1" as="geometry">
              <Array as="points" />
            </mxGeometry>
          </mxCell>
        </UserObject>
        <UserObject label="" lucidchartObjectId="P0~oqOukLtA0" id="RZULVZN663qODn4eYaS_-21">
          <mxCell style="html=1;jettySize=18;whiteSpace=wrap;fontSize=13;strokeColor=#333333;strokeOpacity=100;strokeWidth=0.8;rounded=0;startArrow=none;;endArrow=none;;exitX=0.5;exitY=-0.003;exitPerimeter=0;entryX=-0.003;entryY=0.5;entryPerimeter=0;" parent="1" source="RZULVZN663qODn4eYaS_-10" target="RZULVZN663qODn4eYaS_-14" edge="1">
            <mxGeometry width="100" height="100" relative="1" as="geometry">
              <Array as="points" />
            </mxGeometry>
          </mxCell>
        </UserObject>
        <UserObject label="Condition: {will not repair car that is older than 2000}" lucidchartObjectId="X4~o7RoEeA~a" id="RZULVZN663qODn4eYaS_-22">
          <mxCell style="html=1;overflow=block;blockSpacing=1;whiteSpace=wrap;shape=note;size=15;whiteSpace=wrap;fontSize=13;fontColor=#333333;align=center;align=left;spacing=0;strokeColor=#333333;strokeOpacity=100;fillOpacity=100;rounded=1;absoluteArcSize=1;arcSize=12;fillColor=#ffffff;dashed=1;fixDash=1;strokeWidth=0.8;" parent="1" vertex="1">
            <mxGeometry x="465" y="545" width="120" height="90" as="geometry" />
          </mxCell>
        </UserObject>
        <UserObject label="" lucidchartObjectId="94~oZeXjvl31" id="RZULVZN663qODn4eYaS_-23">
          <mxCell style="html=1;jettySize=18;whiteSpace=wrap;fontSize=13;strokeColor=#333333;strokeOpacity=100;dashed=1;fixDash=1;strokeWidth=0.8;rounded=1;arcSize=24;edgeStyle=orthogonalEdgeStyle;startArrow=none;;endArrow=none;;exitX=0.5;exitY=-0.004;exitPerimeter=0;entryX=0.5;entryY=1.015;entryPerimeter=0;" parent="1" source="RZULVZN663qODn4eYaS_-22" target="RZULVZN663qODn4eYaS_-26" edge="1">
            <mxGeometry width="100" height="100" relative="1" as="geometry">
              <Array as="points" />
            </mxGeometry>
          </mxCell>
        </UserObject>
        <UserObject label="" lucidchartObjectId="g~~oOLO8Ri4x" id="RZULVZN663qODn4eYaS_-24">
          <mxCell style="html=1;jettySize=18;whiteSpace=wrap;fontSize=13;strokeColor=#333333;strokeOpacity=100;strokeWidth=0.8;rounded=1;arcSize=24;edgeStyle=orthogonalEdgeStyle;startArrow=block;startFill=0;;endArrow=none;;exitX=0.865;exitY=0.778;exitPerimeter=0;entryX=0.5;entryY=0.532;entryPerimeter=0;" parent="1" source="RZULVZN663qODn4eYaS_-3" target="RZULVZN663qODn4eYaS_-11" edge="1">
            <mxGeometry width="100" height="100" relative="1" as="geometry">
              <Array as="points" />
            </mxGeometry>
          </mxCell>
        </UserObject>
        <UserObject label="Record car for destruction" lucidchartObjectId="uaapsVs1eE.r" id="RZULVZN663qODn4eYaS_-25">
          <mxCell style="html=1;overflow=block;blockSpacing=1;whiteSpace=wrap;ellipse;whiteSpace=wrap;fontSize=13;spacing=0;strokeColor=#ffffff;strokeOpacity=100;fillOpacity=100;rounded=1;absoluteArcSize=1;arcSize=7.5;fillColor=#3278cc;strokeWidth=0.8;" parent="1" vertex="1">
            <mxGeometry x="330" y="418" width="120" height="90" as="geometry" />
          </mxCell>
        </UserObject>
        <UserObject label="&amp;lt;&amp;lt;extend&amp;gt;&amp;gt;" lucidchartObjectId="~capH1p05-x2" id="RZULVZN663qODn4eYaS_-26">
          <mxCell style="html=1;overflow=block;blockSpacing=1;whiteSpace=wrap;;whiteSpace=wrap;fontSize=13;fontColor=#333333;align=center;spacing=0;strokeColor=#333333;strokeOpacity=100;fillOpacity=100;rounded=1;absoluteArcSize=1;arcSize=12;fillColor=#ffffff;strokeWidth=0.8;" parent="1" vertex="1">
            <mxGeometry x="465" y="380" width="60" height="24" as="geometry" />
          </mxCell>
        </UserObject>
        <UserObject label="Mark parts for repair" lucidchartObjectId="OVEqGw0Y2wSU" id="RZULVZN663qODn4eYaS_-27">
          <mxCell style="html=1;overflow=block;blockSpacing=1;whiteSpace=wrap;ellipse;whiteSpace=wrap;fontSize=13;spacing=0;strokeColor=#ffffff;strokeOpacity=100;fillOpacity=100;rounded=1;absoluteArcSize=1;arcSize=7.5;fillColor=#3278cc;strokeWidth=0.8;" parent="1" vertex="1">
            <mxGeometry x="675" y="455" width="120" height="90" as="geometry" />
          </mxCell>
        </UserObject>
        <UserObject label="" lucidchartObjectId="KWEqiB-AGTI6" id="RZULVZN663qODn4eYaS_-28">
          <mxCell style="html=1;jettySize=18;whiteSpace=wrap;fontSize=13;strokeColor=#333333;strokeOpacity=100;strokeWidth=0.8;rounded=0;startArrow=none;;endArrow=none;;exitX=0.494;exitY=0.439;exitPerimeter=0;entryX=1.003;entryY=0.5;entryPerimeter=0;" parent="1" source="RZULVZN663qODn4eYaS_-3" target="RZULVZN663qODn4eYaS_-27" edge="1">
            <mxGeometry width="100" height="100" relative="1" as="geometry">
              <Array as="points" />
            </mxGeometry>
          </mxCell>
        </UserObject>
        <UserObject label="" lucidchartObjectId="-0EqQTSguNnP" id="RZULVZN663qODn4eYaS_-29">
          <mxCell style="html=1;jettySize=18;whiteSpace=wrap;fontSize=13;strokeColor=#333333;strokeOpacity=100;dashed=1;fixDash=1;strokeWidth=0.8;rounded=1;arcSize=24;edgeStyle=orthogonalEdgeStyle;startArrow=none;;endArrow=block;endFill=0;;exitX=-0.003;exitY=0.5;exitPerimeter=0;entryX=1.003;entryY=0.5;entryPerimeter=0;" parent="1" source="RZULVZN663qODn4eYaS_-16" target="RZULVZN663qODn4eYaS_-17" edge="1">
            <mxGeometry width="100" height="100" relative="1" as="geometry">
              <Array as="points" />
            </mxGeometry>
          </mxCell>
        </UserObject>
        <UserObject label="" lucidchartObjectId="h1EqX_hXQau-" id="RZULVZN663qODn4eYaS_-30">
          <mxCell style="html=1;jettySize=18;whiteSpace=wrap;fontSize=13;strokeColor=#333333;strokeOpacity=100;dashed=1;fixDash=1;strokeWidth=0.8;rounded=0;startArrow=block;startFill=0;;endArrow=none;;exitX=0.5;exitY=1.004;exitPerimeter=0;entryX=0.994;entryY=0.595;entryPerimeter=0;" parent="1" source="RZULVZN663qODn4eYaS_-16" target="RZULVZN663qODn4eYaS_-25" edge="1">
            <mxGeometry width="100" height="100" relative="1" as="geometry">
              <Array as="points" />
            </mxGeometry>
          </mxCell>
        </UserObject>
        <UserObject label="" lucidchartObjectId="UNTqpM2koKiT" id="RZULVZN663qODn4eYaS_-31">
          <mxCell style="html=1;jettySize=18;whiteSpace=wrap;fontSize=13;strokeColor=#333333;strokeOpacity=100;strokeWidth=0.8;rounded=0;startArrow=none;;endArrow=none;;exitX=0.494;exitY=0.439;exitPerimeter=0;entryX=0.5;entryY=1.004;entryPerimeter=0;" parent="1" source="RZULVZN663qODn4eYaS_-12" target="RZULVZN663qODn4eYaS_-32" edge="1">
            <mxGeometry width="100" height="100" relative="1" as="geometry">
              <Array as="points">
                <mxPoint x="-562" y="1354" />
                <mxPoint x="-562" y="1160" />
                <mxPoint x="-405" y="1160" />
              </Array>
            </mxGeometry>
          </mxCell>
        </UserObject>
        <UserObject label="book appointment " lucidchartObjectId="VNTqxWf5_EfD" id="RZULVZN663qODn4eYaS_-32">
          <mxCell style="html=1;overflow=block;blockSpacing=1;whiteSpace=wrap;ellipse;whiteSpace=wrap;fontSize=13;spacing=0;strokeColor=#ffffff;strokeOpacity=100;fillOpacity=100;rounded=1;absoluteArcSize=1;arcSize=7.5;fillColor=#3278cc;strokeWidth=0.8;" parent="1" vertex="1">
            <mxGeometry x="-480" y="1040" width="120" height="90" as="geometry" />
          </mxCell>
        </UserObject>
        <UserObject label="" lucidchartObjectId="FSTqG34B0KLO" id="RZULVZN663qODn4eYaS_-33">
          <mxCell style="html=1;jettySize=18;whiteSpace=wrap;fontSize=13;strokeColor=#333333;strokeOpacity=100;strokeWidth=0.8;rounded=0;startArrow=none;;endArrow=none;;exitX=0.506;exitY=0.439;exitPerimeter=0;entryX=0.5;entryY=1.004;entryPerimeter=0;" parent="1" source="RZULVZN663qODn4eYaS_-12" target="RZULVZN663qODn4eYaS_-34" edge="1">
            <mxGeometry width="100" height="100" relative="1" as="geometry">
              <Array as="points" />
            </mxGeometry>
          </mxCell>
        </UserObject>
        <UserObject label="cancel appointment" lucidchartObjectId="QSTqQmaDY~zK" id="RZULVZN663qODn4eYaS_-34">
          <mxCell style="html=1;overflow=block;blockSpacing=1;whiteSpace=wrap;ellipse;whiteSpace=wrap;fontSize=13;spacing=0;strokeColor=#ffffff;strokeOpacity=100;fillOpacity=100;rounded=1;absoluteArcSize=1;arcSize=7.5;fillColor=#3278cc;dashed=1;fixDash=1;strokeWidth=0.8;" parent="1" vertex="1">
            <mxGeometry x="-330" y="1130" width="120" height="90" as="geometry" />
          </mxCell>
        </UserObject>
        <UserObject label="Record Inspection result" lucidchartObjectId="ZSTqWgjHUTyP" id="RZULVZN663qODn4eYaS_-35">
          <mxCell style="html=1;overflow=block;blockSpacing=1;whiteSpace=wrap;ellipse;whiteSpace=wrap;fontSize=13;spacing=0;strokeColor=#ffffff;strokeOpacity=100;fillOpacity=100;rounded=1;absoluteArcSize=1;arcSize=7.5;fillColor=#3278cc;strokeWidth=0.8;" parent="1" vertex="1">
            <mxGeometry x="225" y="1085" width="120" height="90" as="geometry" />
          </mxCell>
        </UserObject>
        <UserObject label="" lucidchartObjectId="uTTqAl9~CjQP" id="RZULVZN663qODn4eYaS_-36">
          <mxCell style="html=1;jettySize=18;whiteSpace=wrap;fontSize=13;strokeColor=#333333;strokeOpacity=100;strokeWidth=0.8;rounded=0;startArrow=none;;endArrow=none;;exitX=0.5;exitY=1.004;exitPerimeter=0;entryX=0.494;entryY=0.5;entryPerimeter=0;" parent="1" source="RZULVZN663qODn4eYaS_-35" target="RZULVZN663qODn4eYaS_-10" edge="1">
            <mxGeometry width="100" height="100" relative="1" as="geometry">
              <Array as="points" />
            </mxGeometry>
          </mxCell>
        </UserObject>
        <UserObject label="book by phone" lucidchartObjectId="yTTq_5hZqBCi" id="RZULVZN663qODn4eYaS_-37">
          <mxCell style="html=1;overflow=block;blockSpacing=1;whiteSpace=wrap;ellipse;whiteSpace=wrap;fontSize=13;spacing=0;strokeColor=#ffffff;strokeOpacity=100;fillOpacity=100;rounded=1;absoluteArcSize=1;arcSize=7.5;fillColor=#3278cc;strokeWidth=0.8;" parent="1" vertex="1">
            <mxGeometry x="-540" y="800" width="120" height="90" as="geometry" />
          </mxCell>
        </UserObject>
        <UserObject label="book in poerson" lucidchartObjectId="BTTqwBoDXqji" id="RZULVZN663qODn4eYaS_-38">
          <mxCell style="html=1;overflow=block;blockSpacing=1;whiteSpace=wrap;ellipse;whiteSpace=wrap;fontSize=13;spacing=0;strokeColor=#ffffff;strokeOpacity=100;fillOpacity=100;rounded=1;absoluteArcSize=1;arcSize=7.5;fillColor=#3278cc;strokeWidth=0.8;" parent="1" vertex="1">
            <mxGeometry x="-390" y="800" width="120" height="90" as="geometry" />
          </mxCell>
        </UserObject>
        <UserObject label="" lucidchartObjectId="dUTqMsYpqsgF" id="RZULVZN663qODn4eYaS_-39">
          <mxCell style="html=1;jettySize=18;whiteSpace=wrap;fontSize=13;strokeColor=#333333;strokeOpacity=100;strokeWidth=0.8;rounded=0;startArrow=none;;endArrow=block;endFill=0;;exitX=0.5;exitY=1.004;exitPerimeter=0;entryX=0.375;entryY=0.012;entryPerimeter=0;" parent="1" source="RZULVZN663qODn4eYaS_-37" target="RZULVZN663qODn4eYaS_-32" edge="1">
            <mxGeometry width="100" height="100" relative="1" as="geometry">
              <Array as="points" />
            </mxGeometry>
          </mxCell>
        </UserObject>
        <UserObject label="" lucidchartObjectId="gUTqaMc0lYYa" id="RZULVZN663qODn4eYaS_-40">
          <mxCell style="html=1;jettySize=18;whiteSpace=wrap;fontSize=13;strokeColor=#333333;strokeOpacity=100;strokeWidth=0.8;rounded=0;startArrow=none;;endArrow=block;endFill=0;;exitX=0.5;exitY=1.004;exitPerimeter=0;entryX=0.5;entryY=-0.004;entryPerimeter=0;" parent="1" source="RZULVZN663qODn4eYaS_-38" target="RZULVZN663qODn4eYaS_-32" edge="1">
            <mxGeometry width="100" height="100" relative="1" as="geometry">
              <Array as="points" />
            </mxGeometry>
          </mxCell>
        </UserObject>
        <UserObject label="Mark car for mod" lucidchartObjectId="CVTqfQa8Tghk" id="RZULVZN663qODn4eYaS_-41">
          <mxCell style="html=1;overflow=block;blockSpacing=1;whiteSpace=wrap;ellipse;whiteSpace=wrap;fontSize=13;spacing=0;strokeColor=#ffffff;strokeOpacity=100;fillOpacity=100;rounded=1;absoluteArcSize=1;arcSize=7.5;fillColor=#3278cc;strokeWidth=0.8;" parent="1" vertex="1">
            <mxGeometry x="345" y="935" width="120" height="90" as="geometry" />
          </mxCell>
        </UserObject>
        <UserObject label="email confirmation of booking to client" lucidchartObjectId="1VTqq7uflz4m" id="RZULVZN663qODn4eYaS_-42">
          <mxCell style="html=1;overflow=block;blockSpacing=1;whiteSpace=wrap;ellipse;whiteSpace=wrap;fontSize=13;spacing=0;strokeColor=#ffffff;strokeOpacity=100;fillOpacity=100;rounded=1;absoluteArcSize=1;arcSize=7.5;fillColor=#3278cc;dashed=1;fixDash=1;strokeWidth=0.8;" parent="1" vertex="1">
            <mxGeometry x="-210" y="875" width="120" height="90" as="geometry" />
          </mxCell>
        </UserObject>
        <UserObject label="Mark car for repair" lucidchartObjectId="LD2qbD7IsWOv" id="RZULVZN663qODn4eYaS_-43">
          <mxCell style="html=1;overflow=block;blockSpacing=1;whiteSpace=wrap;ellipse;whiteSpace=wrap;fontSize=13;spacing=0;strokeColor=#ffffff;strokeOpacity=100;fillOpacity=100;rounded=1;absoluteArcSize=1;arcSize=7.5;fillColor=#3278cc;strokeWidth=0.8;" parent="1" vertex="1">
            <mxGeometry x="105" y="935" width="120" height="90" as="geometry" />
          </mxCell>
        </UserObject>
        <UserObject label="Mark car as completed" lucidchartObjectId="KG2qYYG5B5tX" id="RZULVZN663qODn4eYaS_-44">
          <mxCell style="html=1;overflow=block;blockSpacing=1;whiteSpace=wrap;ellipse;whiteSpace=wrap;fontSize=13;spacing=0;strokeColor=#ffffff;strokeOpacity=100;fillOpacity=100;rounded=1;absoluteArcSize=1;arcSize=7.5;fillColor=#3278cc;strokeWidth=0.8;" parent="1" vertex="1">
            <mxGeometry x="345" y="770" width="120" height="90" as="geometry" />
          </mxCell>
        </UserObject>
        <UserObject label="" lucidchartObjectId="nK2qnpM5XHhl" id="RZULVZN663qODn4eYaS_-45">
          <mxCell style="html=1;jettySize=18;whiteSpace=wrap;fontSize=13;strokeColor=#333333;strokeOpacity=100;dashed=1;fixDash=1;strokeWidth=0.8;rounded=0;startArrow=open;;endArrow=none;;exitX=-0.003;exitY=0.5;exitPerimeter=0;entryX=0.5;entryY=1.004;entryPerimeter=0;" parent="1" source="RZULVZN663qODn4eYaS_-35" target="RZULVZN663qODn4eYaS_-43" edge="1">
            <mxGeometry width="100" height="100" relative="1" as="geometry">
              <Array as="points" />
            </mxGeometry>
          </mxCell>
        </UserObject>
        <UserObject label="" lucidchartObjectId="BK2qjmxcHMKt" id="RZULVZN663qODn4eYaS_-46">
          <mxCell style="html=1;jettySize=18;whiteSpace=wrap;fontSize=13;strokeColor=#333333;strokeOpacity=100;strokeWidth=0.8;rounded=0;startArrow=none;;endArrow=block;endFill=0;;exitX=1.003;exitY=0.5;exitPerimeter=0;entryX=0.5;entryY=1.004;entryPerimeter=0;" parent="1" source="RZULVZN663qODn4eYaS_-35" target="RZULVZN663qODn4eYaS_-41" edge="1">
            <mxGeometry width="100" height="100" relative="1" as="geometry">
              <Array as="points" />
            </mxGeometry>
          </mxCell>
        </UserObject>
        <UserObject label="Condition: {car is damaged" lucidchartObjectId="2M2q5-2wPiri" id="RZULVZN663qODn4eYaS_-47">
          <mxCell style="html=1;overflow=block;blockSpacing=1;whiteSpace=wrap;shape=note;size=15;whiteSpace=wrap;fontSize=13;fontColor=#333333;align=center;align=left;spacing=0;strokeColor=#333333;strokeOpacity=100;fillOpacity=100;rounded=1;absoluteArcSize=1;arcSize=12;fillColor=#ffffff;dashed=1;fixDash=1;strokeWidth=0.8;" parent="1" vertex="1">
            <mxGeometry x="-30" y="1100" width="120" height="90" as="geometry" />
          </mxCell>
        </UserObject>
        <UserObject label="" lucidchartObjectId="eN2qMrTDU.H3" id="RZULVZN663qODn4eYaS_-48">
          <mxCell style="html=1;jettySize=18;whiteSpace=wrap;fontSize=13;strokeColor=#333333;strokeOpacity=100;dashed=1;fixDash=1;strokeWidth=0.8;rounded=0;startArrow=none;;endArrow=none;;exitX=1.003;exitY=0.5;exitPerimeter=0;" parent="1" source="RZULVZN663qODn4eYaS_-47" edge="1">
            <mxGeometry width="100" height="100" relative="1" as="geometry">
              <Array as="points" />
              <mxPoint x="181" y="1054" as="targetPoint" />
            </mxGeometry>
          </mxCell>
        </UserObject>
        <UserObject label="Reschedule Appointment" lucidchartObjectId="mrftm6o4m7uL" id="RZULVZN663qODn4eYaS_-49">
          <mxCell style="html=1;overflow=block;blockSpacing=1;whiteSpace=wrap;ellipse;whiteSpace=wrap;fontSize=13;spacing=0;strokeColor=#ffffff;strokeOpacity=100;fillOpacity=100;rounded=1;absoluteArcSize=1;arcSize=7.5;fillColor=#3278cc;strokeWidth=0.8;" parent="1" vertex="1">
            <mxGeometry x="-440" y="350" width="120" height="90" as="geometry" />
          </mxCell>
        </UserObject>
        <UserObject label="" lucidchartObjectId="3rftV6-Ou~Za" id="RZULVZN663qODn4eYaS_-50">
          <mxCell style="html=1;jettySize=18;whiteSpace=wrap;fontSize=13;strokeColor=#333333;strokeOpacity=100;strokeWidth=0.8;rounded=0;startArrow=none;;endArrow=none;;exitX=-0.003;exitY=0.5;exitPerimeter=0;entryX=0.506;entryY=0.5;entryPerimeter=0;" parent="1" source="RZULVZN663qODn4eYaS_-49" target="RZULVZN663qODn4eYaS_-2" edge="1">
            <mxGeometry width="100" height="100" relative="1" as="geometry">
              <Array as="points" />
            </mxGeometry>
          </mxCell>
        </UserObject>
        <UserObject label="Reschedule unavailable" lucidchartObjectId="-uftYD6KMABE" id="RZULVZN663qODn4eYaS_-51">
          <mxCell style="html=1;overflow=block;blockSpacing=1;whiteSpace=wrap;ellipse;whiteSpace=wrap;fontSize=13;fontColor=#333333;spacing=0;strokeColor=#ffffff;strokeOpacity=100;fillOpacity=100;rounded=1;absoluteArcSize=1;arcSize=7.5;fillColor=#3278cc;dashed=1;fixDash=1;strokeWidth=0.8;" parent="1" vertex="1">
            <mxGeometry x="-90" y="290" width="120" height="90" as="geometry" />
          </mxCell>
        </UserObject>
        <UserObject label="Cancel Appointment" lucidchartObjectId="nzft5OL9BiiU" id="RZULVZN663qODn4eYaS_-52">
          <mxCell style="html=1;overflow=block;blockSpacing=1;whiteSpace=wrap;ellipse;whiteSpace=wrap;fontSize=13;spacing=0;strokeColor=#ffffff;strokeOpacity=100;fillOpacity=100;rounded=1;absoluteArcSize=1;arcSize=7.5;fillColor=#3278cc;dashed=1;fixDash=1;strokeWidth=0.8;" parent="1" vertex="1">
            <mxGeometry x="-405" y="485" width="120" height="90" as="geometry" />
          </mxCell>
        </UserObject>
        <UserObject label="" lucidchartObjectId="szftKcdXPwRv" id="RZULVZN663qODn4eYaS_-53">
          <mxCell style="html=1;jettySize=18;whiteSpace=wrap;fontSize=13;strokeColor=#333333;strokeOpacity=100;strokeWidth=0.8;rounded=0;startArrow=none;;endArrow=none;;exitX=-0.003;exitY=0.5;exitPerimeter=0;entryX=0.506;entryY=0.5;entryPerimeter=0;" parent="1" source="RZULVZN663qODn4eYaS_-52" target="RZULVZN663qODn4eYaS_-2" edge="1">
            <mxGeometry width="100" height="100" relative="1" as="geometry">
              <Array as="points" />
            </mxGeometry>
          </mxCell>
        </UserObject>
        <UserObject label="Process refund" lucidchartObjectId="YzftNsXNCPin" id="RZULVZN663qODn4eYaS_-54">
          <mxCell style="html=1;overflow=block;blockSpacing=1;whiteSpace=wrap;ellipse;whiteSpace=wrap;fontSize=13;spacing=0;strokeColor=#ffffff;strokeOpacity=100;fillOpacity=100;rounded=1;absoluteArcSize=1;arcSize=7.5;fillColor=#3278cc;dashed=1;fixDash=1;strokeWidth=0.8;" parent="1" vertex="1">
            <mxGeometry x="60" y="425" width="120" height="90" as="geometry" />
          </mxCell>
        </UserObject>
        <UserObject label="Refund not permitted" lucidchartObjectId="hAftY-XYHSSj" id="RZULVZN663qODn4eYaS_-55">
          <mxCell style="html=1;overflow=block;blockSpacing=1;whiteSpace=wrap;ellipse;whiteSpace=wrap;fontSize=13;spacing=0;strokeColor=#ffffff;strokeOpacity=100;fillOpacity=100;rounded=1;absoluteArcSize=1;arcSize=7.5;fillColor=#3278cc;dashed=1;fixDash=1;strokeWidth=0.8;" parent="1" vertex="1">
            <mxGeometry x="-120" y="605" width="120" height="90" as="geometry" />
          </mxCell>
        </UserObject>
        <UserObject label="View Appointments" lucidchartObjectId="jBfttkGdBH5Q" id="RZULVZN663qODn4eYaS_-56">
          <mxCell style="html=1;overflow=block;blockSpacing=1;whiteSpace=wrap;ellipse;whiteSpace=wrap;fontSize=13;spacing=0;strokeColor=#ffffff;strokeOpacity=100;fillOpacity=100;rounded=1;absoluteArcSize=1;arcSize=7.5;fillColor=#3278cc;dashed=1;fixDash=1;strokeWidth=0.8;" parent="1" vertex="1">
            <mxGeometry x="-420" y="635" width="120" height="90" as="geometry" />
          </mxCell>
        </UserObject>
        <UserObject label="" lucidchartObjectId="pBftYrLVR77X" id="RZULVZN663qODn4eYaS_-57">
          <mxCell style="html=1;jettySize=18;whiteSpace=wrap;fontSize=13;strokeColor=#333333;strokeOpacity=100;strokeWidth=0.8;rounded=0;startArrow=none;;endArrow=none;;exitX=-0.003;exitY=0.5;exitPerimeter=0;entryX=0.506;entryY=0.5;entryPerimeter=0;" parent="1" source="RZULVZN663qODn4eYaS_-56" target="RZULVZN663qODn4eYaS_-2" edge="1">
            <mxGeometry width="100" height="100" relative="1" as="geometry">
              <Array as="points" />
            </mxGeometry>
          </mxCell>
        </UserObject>
        <UserObject label="" lucidchartObjectId="HKftoaXN~GO-" id="RZULVZN663qODn4eYaS_-58">
          <mxCell style="html=1;jettySize=18;whiteSpace=wrap;fontSize=13;strokeColor=#333333;strokeOpacity=100;dashed=1;fixDash=1;strokeWidth=0.8;rounded=0;startArrow=open;;endArrow=none;;exitX=1.003;exitY=0.5;exitPerimeter=0;entryX=-0.003;entryY=0.5;entryPerimeter=0;" parent="1" source="RZULVZN663qODn4eYaS_-49" target="RZULVZN663qODn4eYaS_-51" edge="1">
            <mxGeometry width="100" height="100" relative="1" as="geometry">
              <Array as="points" />
            </mxGeometry>
          </mxCell>
        </UserObject>
        <mxCell id="RZULVZN663qODn4eYaS_-59" value="&amp;lt;&amp;lt;Extends&amp;gt;&amp;gt;" style="text;html=1;resizable=0;labelBackgroundColor=#ffffff;align=center;verticalAlign=middle;fontColor=#333333;;fontSize=13;" parent="RZULVZN663qODn4eYaS_-58" vertex="1">
          <mxGeometry relative="1" as="geometry" />
        </mxCell>
        <UserObject label="" lucidchartObjectId="eLftCue1ORFQ" id="RZULVZN663qODn4eYaS_-60">
          <mxCell style="html=1;jettySize=18;whiteSpace=wrap;fontSize=13;strokeColor=#333333;strokeOpacity=100;dashed=1;fixDash=1;strokeWidth=0.8;rounded=0;startArrow=open;;endArrow=none;;exitX=1.003;exitY=0.5;exitPerimeter=0;entryX=-0.003;entryY=0.5;entryPerimeter=0;" parent="1" source="RZULVZN663qODn4eYaS_-52" target="RZULVZN663qODn4eYaS_-54" edge="1">
            <mxGeometry width="100" height="100" relative="1" as="geometry">
              <Array as="points" />
            </mxGeometry>
          </mxCell>
        </UserObject>
        <mxCell id="RZULVZN663qODn4eYaS_-61" value="&amp;lt;&amp;lt;Extends&amp;gt;&amp;gt;" style="text;html=1;resizable=0;labelBackgroundColor=#ffffff;align=center;verticalAlign=middle;fontColor=#333333;;fontSize=13;" parent="RZULVZN663qODn4eYaS_-60" vertex="1">
          <mxGeometry x="0.3326846612468035" relative="1" as="geometry" />
        </mxCell>
        <UserObject label="" lucidchartObjectId="zLft-auoNg0." id="RZULVZN663qODn4eYaS_-62">
          <mxCell style="html=1;jettySize=18;whiteSpace=wrap;fontSize=13;strokeColor=#333333;strokeOpacity=100;dashed=1;fixDash=1;strokeWidth=0.8;rounded=0;startArrow=open;;endArrow=none;;exitX=1.003;exitY=0.5;exitPerimeter=0;entryX=-0.003;entryY=0.5;entryPerimeter=0;" parent="1" source="RZULVZN663qODn4eYaS_-52" target="RZULVZN663qODn4eYaS_-55" edge="1">
            <mxGeometry width="100" height="100" relative="1" as="geometry">
              <Array as="points" />
            </mxGeometry>
          </mxCell>
        </UserObject>
        <mxCell id="RZULVZN663qODn4eYaS_-63" value="&amp;lt;&amp;lt;Extends&amp;gt;." style="text;html=1;resizable=0;labelBackgroundColor=#ffffff;align=center;verticalAlign=middle;fontColor=#333333;;fontSize=13;" parent="RZULVZN663qODn4eYaS_-62" vertex="1">
          <mxGeometry x="-0.24672532256489665" relative="1" as="geometry" />
        </mxCell>
        <UserObject label="" lucidchartObjectId="ULftEjmBUaPx" id="RZULVZN663qODn4eYaS_-64">
          <mxCell style="html=1;jettySize=18;whiteSpace=wrap;fontSize=13;strokeColor=#333333;strokeOpacity=100;dashed=1;fixDash=1;strokeWidth=0.8;rounded=0;startArrow=none;;endArrow=none;;exitY=0.5;exitPerimeter=0;entryY=0.5;entryPerimeter=0;" parent="1" source="RZULVZN663qODn4eYaS_-52" target="RZULVZN663qODn4eYaS_-52" edge="1">
            <mxGeometry width="100" height="100" relative="1" as="geometry">
              <Array as="points">
                <mxPoint x="-265" y="550" generated="1" />
                <mxPoint x="-265" y="550" generated="1" />
              </Array>
            </mxGeometry>
          </mxCell>
        </UserObject>
        <UserObject label="" lucidchartObjectId="aQfteaYvIbb6" id="RZULVZN663qODn4eYaS_-65">
          <mxCell style="html=1;jettySize=18;whiteSpace=wrap;fontSize=13;strokeColor=#333333;strokeOpacity=100;dashed=1;fixDash=1;strokeWidth=0.8;rounded=0;startArrow=open;;endArrow=none;;exitX=-0.003;exitY=0.5;exitPerimeter=0;entryX=1.003;entryY=0.5;entryPerimeter=0;" parent="1" source="RZULVZN663qODn4eYaS_-5" target="RZULVZN663qODn4eYaS_-4" edge="1">
            <mxGeometry width="100" height="100" relative="1" as="geometry">
              <Array as="points" />
            </mxGeometry>
          </mxCell>
        </UserObject>
        <mxCell id="RZULVZN663qODn4eYaS_-66" value="&amp;lt;&amp;lt;Include&amp;gt;&amp;gt;" style="text;html=1;resizable=0;labelBackgroundColor=#ffffff;align=center;verticalAlign=middle;fontColor=#333333;;fontSize=13;" parent="RZULVZN663qODn4eYaS_-65" vertex="1">
          <mxGeometry x="0.20054555422175047" relative="1" as="geometry" />
        </mxCell>
        <UserObject label="Condition: {&amp;gt;48hrs before lesson}" lucidchartObjectId="04ftWnlgswQK" id="RZULVZN663qODn4eYaS_-67">
          <mxCell style="html=1;overflow=block;blockSpacing=1;whiteSpace=wrap;shape=note;size=15;whiteSpace=wrap;fontSize=16;fontColor=#000000;align=center;align=left;spacing=0;strokeColor=#333333;strokeOpacity=100;fillOpacity=100;rounded=1;absoluteArcSize=1;arcSize=12;fillColor=#ffffff;dashed=1;fixDash=1;strokeWidth=0.8;" parent="1" vertex="1">
            <mxGeometry x="-250" y="407" width="85" height="90" as="geometry" />
          </mxCell>
        </UserObject>
        <UserObject label="" lucidchartObjectId=".4ftdPjnMBsV" id="RZULVZN663qODn4eYaS_-68">
          <mxCell style="html=1;jettySize=18;whiteSpace=wrap;fontSize=13;strokeColor=#333333;strokeOpacity=100;dashed=1;fixDash=1;strokeWidth=0.8;rounded=0;startArrow=none;;endArrow=none;;exitX=1.004;exitY=0.5;exitPerimeter=0;" parent="1" source="RZULVZN663qODn4eYaS_-67" edge="1">
            <mxGeometry width="100" height="100" relative="1" as="geometry">
              <Array as="points" />
              <mxPoint x="-100" y="498" as="targetPoint" />
            </mxGeometry>
          </mxCell>
        </UserObject>
        <UserObject label="Condition: {No mechanic}" lucidchartObjectId="O5ft81n9k~Op" id="RZULVZN663qODn4eYaS_-69">
          <mxCell style="html=1;overflow=block;blockSpacing=1;whiteSpace=wrap;shape=note;size=15;whiteSpace=wrap;fontSize=16;fontColor=#000000;align=center;align=left;spacing=0;strokeColor=#333333;strokeOpacity=100;fillOpacity=100;rounded=1;absoluteArcSize=1;arcSize=12;fillColor=#ffffff;dashed=1;fixDash=1;strokeWidth=0.8;" parent="1" vertex="1">
            <mxGeometry x="-315" y="245" width="90" height="75" as="geometry" />
          </mxCell>
        </UserObject>
        <UserObject label="" lucidchartObjectId="X5ft1ngRkNm2" id="RZULVZN663qODn4eYaS_-70">
          <mxCell style="html=1;jettySize=18;whiteSpace=wrap;fontSize=13;strokeColor=#333333;strokeOpacity=100;dashed=1;fixDash=1;strokeWidth=0.8;rounded=0;startArrow=none;;endArrow=none;;exitX=1.004;exitY=0.5;exitPerimeter=0;" parent="1" source="RZULVZN663qODn4eYaS_-69" edge="1">
            <mxGeometry width="100" height="100" relative="1" as="geometry">
              <Array as="points" />
              <mxPoint x="-154" y="352" as="targetPoint" />
            </mxGeometry>
          </mxCell>
        </UserObject>
        <UserObject label="Condition: {&amp;lt;24hrs before lesson}" lucidchartObjectId="K6ftrDSoKJUG" id="RZULVZN663qODn4eYaS_-71">
          <mxCell style="html=1;overflow=block;blockSpacing=1;whiteSpace=wrap;shape=note;size=15;whiteSpace=wrap;fontSize=16;fontColor=#000000;align=center;align=left;spacing=0;strokeColor=#333333;strokeOpacity=100;fillOpacity=100;rounded=1;absoluteArcSize=1;arcSize=12;fillColor=#ffffff;dashed=1;fixDash=1;strokeWidth=0.8;" parent="1" vertex="1">
            <mxGeometry x="-15" y="530" width="95" height="78" as="geometry" />
          </mxCell>
        </UserObject>
        <UserObject label="" lucidchartObjectId="V6ftsC9E6c2V" id="RZULVZN663qODn4eYaS_-72">
          <mxCell style="html=1;jettySize=18;whiteSpace=wrap;fontSize=13;strokeColor=#333333;strokeOpacity=100;dashed=1;fixDash=1;strokeWidth=0.8;rounded=0;startArrow=none;;endArrow=none;;exitX=-0.004;exitY=0.5;exitPerimeter=0;" parent="1" source="RZULVZN663qODn4eYaS_-71" edge="1">
            <mxGeometry width="100" height="100" relative="1" as="geometry">
              <Array as="points" />
              <mxPoint x="-188" y="600" as="targetPoint" />
            </mxGeometry>
          </mxCell>
        </UserObject>
        <mxCell id="4TM1O8RhGbFWWtmLOIMW-1" value="" style="group;dropTarget=0;" vertex="1" parent="1">
          <mxGeometry x="380" y="50" width="640" height="45" as="geometry" />
        </mxCell>
        <UserObject label="%filename%" placeholders="1" lucidchartObjectId="U7PNEHNEvIEY" id="4TM1O8RhGbFWWtmLOIMW-2">
          <mxCell style="points=[[0.688,0.967,0]];html=1;overflow=block;blockSpacing=1;whiteSpace=wrap;;whiteSpace=wrap;fontSize=19.7;fontColor=#a9afb8;fontStyle=1;align=center;spacingLeft=7;spacingRight=7;spacingTop=2;spacing=3;strokeOpacity=0;fillOpacity=0;rounded=1;absoluteArcSize=1;arcSize=12;fillColor=#ffffff;strokeWidth=1.5;" vertex="1" parent="4TM1O8RhGbFWWtmLOIMW-1">
            <mxGeometry width="640" height="31" as="geometry" />
          </mxCell>
        </UserObject>
        <UserObject label="%creatorName%  |  %date{mmmm d, yyyy}%" placeholders="1" lucidchartObjectId="U7PNwYMRwzRe" id="4TM1O8RhGbFWWtmLOIMW-3">
          <mxCell style="html=1;overflow=block;blockSpacing=1;whiteSpace=wrap;;whiteSpace=wrap;fontSize=11.5;fontColor=#a9afb8;align=center;spacingLeft=7;spacingRight=7;spacingTop=2;spacing=3;strokeOpacity=0;fillOpacity=0;rounded=1;absoluteArcSize=1;arcSize=12;fillColor=#ffffff;strokeWidth=1.5;" vertex="1" parent="4TM1O8RhGbFWWtmLOIMW-1">
            <mxGeometry y="31" width="640" height="14" as="geometry" />
          </mxCell>
        </UserObject>
        <UserObject label="" lucidchartObjectId="U7PNrnxMDtur" id="4TM1O8RhGbFWWtmLOIMW-4">
          <mxCell style="html=1;jettySize=18;whiteSpace=wrap;fontSize=13;fontFamily=Helvetica;strokeColor=#a9afb8;strokeOpacity=100;strokeWidth=1.5;rounded=0;startArrow=none;;endArrow=none;;entryX=0.688;entryY=0.967;entryPerimeter=0;" edge="1" parent="4TM1O8RhGbFWWtmLOIMW-1" target="4TM1O8RhGbFWWtmLOIMW-2">
            <mxGeometry width="100" height="100" relative="1" as="geometry">
              <Array as="points" />
              <mxPoint x="206" y="30" as="sourcePoint" />
            </mxGeometry>
          </mxCell>
        </UserObject>
        <mxCell id="4TM1O8RhGbFWWtmLOIMW-5" value="Text" style="edgeLabel;html=1;align=center;verticalAlign=middle;resizable=0;points=[];" vertex="1" connectable="0" parent="4TM1O8RhGbFWWtmLOIMW-4">
          <mxGeometry x="-0.1696" y="13" relative="1" as="geometry">
            <mxPoint as="offset" />
          </mxGeometry>
        </mxCell>
      </root>
    </mxGraphModel>
  </diagram>
</mxfile>
